{"accessors" : [{"bufferView" : 0, "byteOffset" : 0, "componentType" : 5123, "count" : 4326, "type" : "SCALAR", "max" : [4325], "min" : [0]}, {"bufferView" : 1, "byteOffset" : 0, "componentType" : 5126, "count" : 4326, "type" : "VEC3", "max" : [1, 1, 0.5173439383506775], "min" : [-1, -1, -1], "name" : "POSITION"}, {"bufferView" : 1, "byteOffset" : 12, "componentType" : 5126, "count" : 4326, "type" : "VEC3", "max" : [0.9997663497924805, 1.0000044107437134, 0], "min" : [-0.9997663497924805, -1.0000044107437134, -1.0000044107437134], "name" : "NORMAL"}, {"bufferView" : 1, "byteOffset" : 24, "componentType" : 5126, "count" : 4326, "type" : "VEC2", "max" : [0.5646681189537048, -0], "min" : [0.125, -1], "name" : "TEXCOORD_0"}, {"bufferView" : 0, "byteOffset" : 8652, "componentType" : 5123, "count" : 10020, "type" : "SCALAR", "max" : [10019], "min" : [0]}, {"bufferView" : 2, "byteOffset" : 0, "componentType" : 5126, "count" : 10020, "type" : "VEC3", "max" : [0.9999998807907104, 1, 0.24132907390594482], "min" : [-1.0000001192092896, -1, -0.24132698774337769], "name" : "POSITION"}, {"bufferView" : 2, "byteOffset" : 12, "componentType" : 5126, "count" : 10020, "type" : "VEC3", "max" : [0.9997663497924805, 0.9997663497924805, 0.99980628490448], "min" : [-0.9997663497924805, -0.9997663497924805, -1.0000042915344238], "name" : "NORMAL"}, {"bufferView" : 2, "byteOffset" : 24, "componentType" : 5126, "count" : 10020, "type" : "VEC2", "max" : [0.875, -0], "min" : [0.5646679401397705, -1], "name" : "TEXCOORD_0"}, {"bufferView" : 0, "byteOffset" : 28692, "componentType" : 5125, "count" : 69720, "type" : "SCALAR", "max" : [69719], "min" : [0]}, {"bufferView" : 3, "byteOffset" : 0, "componentType" : 5126, "count" : 69720, "type" : "VEC3", "max" : [0.4155222177505493, 1.0219496488571167, 0.49538490176200867], "min" : [-0.415428102016449, -1.0219401121139526, -0.5055421590805054], "name" : "POSITION"}, {"bufferView" : 3, "byteOffset" : 12, "componentType" : 5126, "count" : 69720, "type" : "VEC3", "max" : [1.0000044107437134, 1.0000044107437134, 1.0000044107437134], "min" : [-1.0000044107437134, -1.0000044107437134, -1.0000044107437134], "name" : "NORMAL"}, {"bufferView" : 3, "byteOffset" : 24, "componentType" : 5126, "count" : 69720, "type" : "VEC2", "max" : [0.5647504925727844, -0], "min" : [0, -0.9039245247840881], "name" : "TEXCOORD_0"}], "asset" : {"generator" : "Aspose.3D 22.7", "version" : "2.0"}, "buffers" : [{"uri" : "data:application/octet-stream;base64,", "byteLength" : 2997700}], "bufferViews" : [{"buffer" : 0, "byteOffset" : 0, "byteLength" : 307572, "target" : 34963}, {"buffer" : 0, "byteOffset" : 307576, "byteLength" : 138432, "byteStride" : 32, "target" : 34962}, {"buffer" : 0, "byteOffset" : 446012, "byteLength" : 320640, "byteStride" : 32, "target" : 34962}, {"buffer" : 0, "byteOffset" : 766656, "byteLength" : 2231040, "byteStride" : 32, "target" : 34962}], "materials" : [{"name" : "White", "pbrMetallicRoughness" : {"baseColorFactor" : [0.800000011920929, 0.800000011920929, 0.800000011920929, 1], "metallicFactor" : 0, "roughnessFactor" : 0}, "emissiveFactor" : [0, 0, 0], "alphaMode" : "OPAQUE", "doubleSided" : false}, {"name" : "White", "pbrMetallicRoughness" : {"baseColorFactor" : [0.800000011920929, 0.800000011920929, 0.800000011920929, 1], "metallicFactor" : 0, "roughnessFactor" : 0}, "emissiveFactor" : [0, 0, 0], "alphaMode" : "OPAQUE", "doubleSided" : false}, {"name" : "Red", "pbrMetallicRoughness" : {"baseColorFactor" : [0.8000000715255737, 0.03482357785105705, 0.03482357785105705, 1], "metallicFactor" : 0, "roughnessFactor" : 0}, "emissiveFactor" : [0, 0, 0], "alphaMode" : "OPAQUE", "doubleSided" : false}], "meshes" : [{"primitives" : [{"attributes" : {"POSITION" : 1, "NORMAL" : 2, "TEXCOORD_0" : 3}, "indices" : 0, "material" : 0, "mode" : 4}], "name" : "Cube.001"}, {"primitives" : [{"attributes" : {"POSITION" : 5, "NORMAL" : 6, "TEXCOORD_0" : 7}, "indices" : 4, "material" : 1, "mode" : 4}], "name" : "Cube.002"}, {"primitives" : [{"attributes" : {"POSITION" : 9, "NORMAL" : 10, "TEXCOORD_0" : 11}, "indices" : 8, "material" : 2, "mode" : 4}], "name" : "Cube.005"}], "nodes" : [{"matrix" : [100, 0, 0, 0, 0, -1.6292067955264296E-05, -99.99999999999866, 0, 0, 106.89567565917827, -1.7415516119632467E-05, 0, 0, 0, 0, 1], "mesh" : 0, "name" : "Cube"}, {"matrix" : [103.74507904052734, 0, 0, 0, 0, -1.690221877752537E-05, -103.74507904052597, 0, 0, 110.8989944457993, -1.8067739536814638E-05, 0, 1.11366571218241E-05, 76.90705871582031, 4.3134940597155946E-07, 1], "mesh" : 1, "name" : "Cube.001"}, {"matrix" : [254.5161895751953, 0, 0, 0, 0, -1.6869425074151365E-05, -103.543792724608, 0, 0, 272.06686401366824, -4.432531836886392E-05, 0, -0.011986494064331055, 28.507644653320312, 0.0004951269365847111, 1], "mesh" : 2, "name" : "Cube.003"}], "scene" : 0, "scenes" : [{"nodes" : [0, 1, 2]}]}